<?xml version="1.0" ?>
<!DOCTYPE svg  PUBLIC '-//W3C//DTD SVG 1.1//EN'  'http://www.w3.org/Graphics/SVG/1.1/DTD/svg11.dtd'>
<!-- Uploaded to: SVG Repo, www.svgrepo.com, Generator: SVG Repo Mixer Tools -->
<svg width="800px" height="800px" viewBox="0 0 9.2 9.2" style="shape-rendering:geometricPrecision; text-rendering:geometricPrecision; image-rendering:optimizeQuality; fill-rule:evenodd; clip-rule:evenodd" version="1.1" xml:space="preserve" xmlns="http://www.w3.org/2000/svg" xmlns:xlink="http://www.w3.org/1999/xlink" xmlns:xodm="http://www.corel.com/coreldraw/odm/2003">
<defs>
<style type="text/css">
   <![CDATA[
    .fil0 {fill:none}
    .fil2 {fill:#2554B0}
    .fil1 {fill:#2554B0;fill-rule:nonzero}
    .fil3 {fill:#479DFF;fill-rule:nonzero}
   ]]>
  </style>
</defs>
<g id="Layer_x0020_1">
<rect class="fil0" height="9.2" width="9.2"/>
<path class="fil1" d="M5.81 6.57l-2.42 0c-0.11,0 -0.21,-0.04 -0.28,-0.12l0 0c-0.07,-0.07 -0.12,-0.17 -0.12,-0.28l0 -3.14c0,-0.11 0.05,-0.21 0.12,-0.28l0 0c0.07,-0.08 0.17,-0.12 0.28,-0.12l1.58 0c0.04,0 0.08,0.02 0.11,0.04l1.08 1.09c0.04,0.03 0.05,0.07 0.05,0.12l0 2.29 0 0c0,0.11 -0.05,0.21 -0.12,0.28l0 0c-0.07,0.08 -0.17,0.12 -0.28,0.12zm-2.42 -0.3l2.42 0c0.02,0 0.05,-0.01 0.07,-0.03 0.02,-0.02 0.03,-0.04 0.03,-0.07l0 0 0 -2.24 -1 -1 -1.52 0c-0.03,0 -0.05,0.01 -0.07,0.03 -0.02,0.01 -0.03,0.04 -0.03,0.07l0 3.14c0,0.03 0.01,0.05 0.03,0.07 0.02,0.02 0.04,0.03 0.07,0.03z"/>
<polygon class="fil2" points="4.97,2.78 4.97,3.86 6.06,3.86 "/>
<path class="fil1" d="M5.12 3.14l0 0.57 0.58 0 -0.58 -0.57zm-0.3 0.72l0 -1.08c0,-0.04 0.02,-0.08 0.05,-0.11 0.05,-0.06 0.15,-0.06 0.21,0l1.08 1.09c0.03,0.02 0.05,0.06 0.05,0.1 0,0.09 -0.07,0.15 -0.15,0.15l-1.09 0c-0.08,0 -0.15,-0.06 -0.15,-0.15z"/>
<path class="fil3" d="M3.95 4.95c-0.09,0 -0.15,-0.07 -0.15,-0.15 0,-0.08 0.06,-0.15 0.15,-0.15l1.3 0c0.09,0 0.15,0.07 0.15,0.15 0,0.08 -0.06,0.15 -0.15,0.15l-1.3 0z"/>
<path class="fil3" d="M3.95 5.7c-0.09,0 -0.15,-0.06 -0.15,-0.15 0,-0.08 0.06,-0.14 0.15,-0.14l0.74 0c0.09,0 0.15,0.06 0.15,0.14 0,0.09 -0.06,0.15 -0.15,0.15l-0.74 0z"/>
</g>
</svg>